<mxfile host="app.diagrams.net" modified="2024-07-10T02:38:58.087Z" agent="Mozilla/5.0 (Windows NT 10.0; Win64; x64) AppleWebKit/537.36 (KHTML, like Gecko) Chrome/126.0.0.0 Safari/537.36" etag="KuerAoaEx9WpGGf2HSNW" version="24.6.4" type="github">
  <diagram name="Página-1" id="q5eTlEpD4O3bjBraEdJ5">
    <mxGraphModel dx="1434" dy="780" grid="1" gridSize="10" guides="1" tooltips="1" connect="1" arrows="1" fold="1" page="1" pageScale="1" pageWidth="827" pageHeight="1169" math="0" shadow="0">
      <root>
        <mxCell id="0" />
        <mxCell id="1" parent="0" />
        <mxCell id="eOJueIMr6wpzgww1xQY5-7" style="edgeStyle=orthogonalEdgeStyle;rounded=0;orthogonalLoop=1;jettySize=auto;html=1;entryX=0;entryY=0.5;entryDx=0;entryDy=0;" edge="1" parent="1" source="eOJueIMr6wpzgww1xQY5-1" target="eOJueIMr6wpzgww1xQY5-6">
          <mxGeometry relative="1" as="geometry" />
        </mxCell>
        <mxCell id="eOJueIMr6wpzgww1xQY5-1" value="¿Qué es escalado vertical?" style="rounded=0;whiteSpace=wrap;html=1;" vertex="1" parent="1">
          <mxGeometry x="50" y="90" width="120" height="60" as="geometry" />
        </mxCell>
        <mxCell id="eOJueIMr6wpzgww1xQY5-6" value="Es mejorar el rendimiento de un sistema&amp;nbsp;&lt;b&gt;&lt;i&gt;&lt;u&gt;agregándole más recursos&lt;/u&gt;&lt;/i&gt;&lt;/b&gt;&amp;nbsp;a un solo servidor. Como agregar RAM, aumentar la capacidad de HDD/SSD o mejorar la capacidad de procesamiento (CPU).&amp;nbsp;&lt;div&gt;Es como mejorar un solo ordenador para que pueda manejar más trabajo o hacerlo más rápido.&lt;/div&gt;" style="rounded=0;whiteSpace=wrap;html=1;" vertex="1" parent="1">
          <mxGeometry x="260" y="35" width="370" height="170" as="geometry" />
        </mxCell>
        <mxCell id="eOJueIMr6wpzgww1xQY5-10" value="" style="edgeStyle=orthogonalEdgeStyle;rounded=0;orthogonalLoop=1;jettySize=auto;html=1;" edge="1" parent="1" source="eOJueIMr6wpzgww1xQY5-8">
          <mxGeometry relative="1" as="geometry">
            <mxPoint x="280" y="350" as="targetPoint" />
          </mxGeometry>
        </mxCell>
        <mxCell id="eOJueIMr6wpzgww1xQY5-8" value="Cloud dev" style="rounded=0;whiteSpace=wrap;html=1;" vertex="1" parent="1">
          <mxGeometry x="40" y="320" width="120" height="60" as="geometry" />
        </mxCell>
        <mxCell id="eOJueIMr6wpzgww1xQY5-12" value="Se encargan de diseñar, crear, probar y mantener soluciones en la nube, como aplicaciones y servicios.&amp;nbsp;&lt;div&gt;Trabajan en conjunto con arquitectos de soluciones en la nube, administradores de bases de datos en la nube, administradores de la nube y clientes para implementar estas soluciones.&lt;/div&gt;" style="rounded=0;whiteSpace=wrap;html=1;" vertex="1" parent="1">
          <mxGeometry x="280" y="295" width="440" height="110" as="geometry" />
        </mxCell>
      </root>
    </mxGraphModel>
  </diagram>
</mxfile>
